<?xml version="1.0" standalone="no"?><!DOCTYPE svg PUBLIC "-//W3C//DTD SVG 1.1//EN" "http://www.w3.org/Graphics/SVG/1.1/DTD/svg11.dtd"><svg t="1585645676799" class="icon" viewBox="0 0 1024 1024" version="1.1" xmlns="http://www.w3.org/2000/svg" p-id="6852" xmlns:xlink="http://www.w3.org/1999/xlink" width="200" height="200"><defs><style type="text/css"></style></defs><path d="M461.38 391.42l102.27 0 0 564.69-102.27 0 0-564.69Z" fill="#936969" p-id="6853"></path><path d="M439.554082 164.520349l56.400501-5.520179 27.711942 283.137084-56.400501 5.520179-27.711942-283.137084Z" fill="#936969" p-id="6854"></path><path d="M267.043388 417.709201l40.071742-40.071741 211.198653 211.198653-40.071741 40.071741-211.198654-211.198653Z" fill="#936969" p-id="6855"></path><path d="M538.332201 720.053612l-40.071741-40.071742 211.198653-211.198653 40.071741 40.071741-211.198653 211.198654Z" fill="#936969" p-id="6856"></path><path d="M613.190854 216.21899l50.12459 26.43888-128.541382 243.697319-50.12459-26.43888 128.541382-243.697319Z" fill="#936969" p-id="6857"></path><path d="M697.789262 264.46526l17.881051 29.293863-142.432022 86.940877-17.88105-29.293863 142.432021-86.940877Z" fill="#936969" p-id="6858"></path><path d="M499.257871 315.129966l-24.267905 24.267905-117.994908-117.994908 24.267905-24.267905 117.994908 117.994908Z" fill="#936969" p-id="6859"></path><path d="M520.08516 701.982468l-17.16 29.721992-144.513659-83.435 17.16-29.721992 144.513659 83.435Z" fill="#936969" p-id="6860"></path><path d="M652.57 157.98m-93.37 0a93.37 93.37 0 1 0 186.74 0 93.37 93.37 0 1 0-186.74 0Z" fill="#2F6FA3" p-id="6861"></path><path d="M332.43 166.87m-93.37 0a93.37 93.37 0 1 0 186.74 0 93.37 93.37 0 1 0-186.74 0Z" fill="#2F6FA3" p-id="6862"></path><path d="M274.63 386.97m-93.37 0a93.37 93.37 0 1 0 186.74 0 93.37 93.37 0 1 0-186.74 0Z" fill="#2F6FA3" p-id="6863"></path><path d="M304.27 644.86m-93.37 0a93.37 93.37 0 1 0 186.74 0 93.37 93.37 0 1 0-186.74 0Z" fill="#2F6FA3" p-id="6864"></path><path d="M746.69 499.61m-93.37 0a93.37 93.37 0 1 0 186.74 0 93.37 93.37 0 1 0-186.74 0Z" fill="#2F6FA3" p-id="6865"></path><path d="M772.63 293.6m-93.37 0a93.37 93.37 0 1 0 186.74 0 93.37 93.37 0 1 0-186.74 0Z" fill="#2F6FA3" p-id="6866"></path></svg>